<mxfile host="app.diagrams.net" modified="2023-12-25T02:03:47.238Z" agent="Mozilla/5.0 (Windows NT 10.0; Win64; x64) AppleWebKit/537.36 (KHTML, like Gecko) Chrome/119.0.0.0 Safari/537.36" etag="UEH8RX416A6WA6rdYWDH" version="22.1.11" type="github">
  <diagram id="kgpKYQtTHZ0yAKxKKP6v" name="Page-1">
    <mxGraphModel dx="794" dy="420" grid="1" gridSize="10" guides="1" tooltips="1" connect="1" arrows="1" fold="1" page="1" pageScale="1" pageWidth="850" pageHeight="1100" math="0" shadow="0">
      <root>
        <mxCell id="0" />
        <mxCell id="1" parent="0" />
        <mxCell id="aimN8S8SISJ-t_hwo4r4-53" value="" style="group" vertex="1" connectable="0" parent="1">
          <mxGeometry x="110" y="130" width="612" height="290" as="geometry" />
        </mxCell>
        <mxCell id="aimN8S8SISJ-t_hwo4r4-41" value="" style="rounded=0;whiteSpace=wrap;html=1;fillColor=#bababa;strokeColor=#23445d;" vertex="1" parent="aimN8S8SISJ-t_hwo4r4-53">
          <mxGeometry x="112" y="40" width="390" height="190" as="geometry" />
        </mxCell>
        <mxCell id="aimN8S8SISJ-t_hwo4r4-2" value="&lt;font style=&quot;font-size: 14px;&quot;&gt;输入问题&lt;/font&gt;" style="rounded=1;whiteSpace=wrap;html=1;" vertex="1" parent="aimN8S8SISJ-t_hwo4r4-53">
          <mxGeometry x="2" y="100" width="90" height="60" as="geometry" />
        </mxCell>
        <mxCell id="aimN8S8SISJ-t_hwo4r4-3" value="&lt;font style=&quot;font-size: 14px;&quot;&gt;LLM 响应&lt;/font&gt;" style="rounded=1;whiteSpace=wrap;html=1;" vertex="1" parent="aimN8S8SISJ-t_hwo4r4-53">
          <mxGeometry x="522" y="100" width="90" height="60" as="geometry" />
        </mxCell>
        <mxCell id="aimN8S8SISJ-t_hwo4r4-20" value="" style="group" vertex="1" connectable="0" parent="aimN8S8SISJ-t_hwo4r4-53">
          <mxGeometry x="152" y="60" width="320" height="60" as="geometry" />
        </mxCell>
        <mxCell id="aimN8S8SISJ-t_hwo4r4-13" value="&lt;font style=&quot;font-size: 14px;&quot;&gt;基于 LLM &lt;br&gt;的生成&lt;/font&gt;" style="rounded=1;whiteSpace=wrap;html=1;fillColor=#f5f5f5;strokeColor=#666666;fontColor=#333333;" vertex="1" parent="aimN8S8SISJ-t_hwo4r4-20">
          <mxGeometry width="95" height="60" as="geometry" />
        </mxCell>
        <mxCell id="aimN8S8SISJ-t_hwo4r4-16" value="&lt;font style=&quot;font-size: 14px;&quot;&gt;数据流&lt;/font&gt;" style="whiteSpace=wrap;html=1;rounded=1;" vertex="1" parent="aimN8S8SISJ-t_hwo4r4-20">
          <mxGeometry x="130" width="70" height="60" as="geometry" />
        </mxCell>
        <mxCell id="aimN8S8SISJ-t_hwo4r4-17" value="" style="edgeStyle=orthogonalEdgeStyle;rounded=0;orthogonalLoop=1;jettySize=auto;html=1;" edge="1" parent="aimN8S8SISJ-t_hwo4r4-20" source="aimN8S8SISJ-t_hwo4r4-13" target="aimN8S8SISJ-t_hwo4r4-16">
          <mxGeometry relative="1" as="geometry" />
        </mxCell>
        <mxCell id="aimN8S8SISJ-t_hwo4r4-18" value="&lt;font style=&quot;font-size: 14px;&quot;&gt;完整输出&lt;/font&gt;" style="whiteSpace=wrap;html=1;rounded=1;" vertex="1" parent="aimN8S8SISJ-t_hwo4r4-20">
          <mxGeometry x="240" width="80" height="60" as="geometry" />
        </mxCell>
        <mxCell id="aimN8S8SISJ-t_hwo4r4-19" value="" style="edgeStyle=orthogonalEdgeStyle;rounded=0;orthogonalLoop=1;jettySize=auto;html=1;" edge="1" parent="aimN8S8SISJ-t_hwo4r4-20" source="aimN8S8SISJ-t_hwo4r4-16" target="aimN8S8SISJ-t_hwo4r4-18">
          <mxGeometry relative="1" as="geometry" />
        </mxCell>
        <mxCell id="aimN8S8SISJ-t_hwo4r4-24" style="edgeStyle=orthogonalEdgeStyle;rounded=0;orthogonalLoop=1;jettySize=auto;html=1;exitX=1;exitY=0.5;exitDx=0;exitDy=0;entryX=0;entryY=0.5;entryDx=0;entryDy=0;" edge="1" parent="aimN8S8SISJ-t_hwo4r4-53" source="aimN8S8SISJ-t_hwo4r4-2" target="aimN8S8SISJ-t_hwo4r4-13">
          <mxGeometry relative="1" as="geometry" />
        </mxCell>
        <mxCell id="aimN8S8SISJ-t_hwo4r4-23" value="&lt;font color=&quot;#ffffff&quot; style=&quot;font-size: 14px;&quot;&gt;LLM 聊天机器人&lt;/font&gt;" style="rounded=0;whiteSpace=wrap;html=1;fillColor=#5f5f5f;" vertex="1" parent="aimN8S8SISJ-t_hwo4r4-53">
          <mxGeometry x="112" width="390" height="40" as="geometry" />
        </mxCell>
        <mxCell id="aimN8S8SISJ-t_hwo4r4-26" style="edgeStyle=orthogonalEdgeStyle;rounded=0;orthogonalLoop=1;jettySize=auto;html=1;exitX=1;exitY=0.5;exitDx=0;exitDy=0;entryX=0;entryY=0.5;entryDx=0;entryDy=0;" edge="1" parent="aimN8S8SISJ-t_hwo4r4-53" source="aimN8S8SISJ-t_hwo4r4-18" target="aimN8S8SISJ-t_hwo4r4-3">
          <mxGeometry relative="1" as="geometry" />
        </mxCell>
        <mxCell id="aimN8S8SISJ-t_hwo4r4-31" value="&lt;font style=&quot;font-size: 14px;&quot;&gt;内容检测&lt;br&gt;&lt;br&gt;&lt;br&gt;&lt;/font&gt;" style="rounded=0;whiteSpace=wrap;html=1;dashed=1;fillColor=#eeeeee;strokeColor=#36393d;" vertex="1" parent="aimN8S8SISJ-t_hwo4r4-53">
          <mxGeometry x="152" y="160" width="200" height="60" as="geometry" />
        </mxCell>
        <mxCell id="aimN8S8SISJ-t_hwo4r4-32" value="基于文本" style="rounded=0;whiteSpace=wrap;html=1;dashed=1;" vertex="1" parent="aimN8S8SISJ-t_hwo4r4-53">
          <mxGeometry x="162" y="190" width="70" height="20" as="geometry" />
        </mxCell>
        <mxCell id="aimN8S8SISJ-t_hwo4r4-33" value="基于关键词" style="rounded=0;whiteSpace=wrap;html=1;dashed=1;" vertex="1" parent="aimN8S8SISJ-t_hwo4r4-53">
          <mxGeometry x="262" y="190" width="80" height="20" as="geometry" />
        </mxCell>
        <mxCell id="aimN8S8SISJ-t_hwo4r4-35" style="edgeStyle=orthogonalEdgeStyle;rounded=0;orthogonalLoop=1;jettySize=auto;html=1;exitX=1;exitY=0.5;exitDx=0;exitDy=0;entryX=0;entryY=0.5;entryDx=0;entryDy=0;dashed=1;" edge="1" parent="aimN8S8SISJ-t_hwo4r4-53" source="aimN8S8SISJ-t_hwo4r4-2" target="aimN8S8SISJ-t_hwo4r4-31">
          <mxGeometry relative="1" as="geometry" />
        </mxCell>
        <mxCell id="aimN8S8SISJ-t_hwo4r4-36" style="edgeStyle=orthogonalEdgeStyle;rounded=0;orthogonalLoop=1;jettySize=auto;html=1;exitX=0.5;exitY=1;exitDx=0;exitDy=0;entryX=0.5;entryY=0;entryDx=0;entryDy=0;dashed=1;" edge="1" parent="aimN8S8SISJ-t_hwo4r4-53" source="aimN8S8SISJ-t_hwo4r4-16" target="aimN8S8SISJ-t_hwo4r4-31">
          <mxGeometry relative="1" as="geometry" />
        </mxCell>
        <mxCell id="aimN8S8SISJ-t_hwo4r4-37" style="edgeStyle=orthogonalEdgeStyle;rounded=0;orthogonalLoop=1;jettySize=auto;html=1;exitX=0.5;exitY=1;exitDx=0;exitDy=0;entryX=0.5;entryY=0;entryDx=0;entryDy=0;dashed=1;" edge="1" parent="aimN8S8SISJ-t_hwo4r4-53" source="aimN8S8SISJ-t_hwo4r4-18" target="aimN8S8SISJ-t_hwo4r4-31">
          <mxGeometry relative="1" as="geometry" />
        </mxCell>
        <mxCell id="aimN8S8SISJ-t_hwo4r4-39" style="edgeStyle=orthogonalEdgeStyle;rounded=0;orthogonalLoop=1;jettySize=auto;html=1;exitX=1;exitY=0.5;exitDx=0;exitDy=0;entryX=0;entryY=0.5;entryDx=0;entryDy=0;" edge="1" parent="aimN8S8SISJ-t_hwo4r4-53" source="aimN8S8SISJ-t_hwo4r4-38" target="aimN8S8SISJ-t_hwo4r4-3">
          <mxGeometry relative="1" as="geometry" />
        </mxCell>
        <mxCell id="aimN8S8SISJ-t_hwo4r4-38" value="&lt;font style=&quot;font-size: 14px;&quot;&gt;非完整内容&lt;/font&gt;" style="rounded=1;whiteSpace=wrap;html=1;" vertex="1" parent="aimN8S8SISJ-t_hwo4r4-53">
          <mxGeometry x="392" y="160" width="80" height="60" as="geometry" />
        </mxCell>
        <mxCell id="aimN8S8SISJ-t_hwo4r4-40" style="edgeStyle=orthogonalEdgeStyle;rounded=0;orthogonalLoop=1;jettySize=auto;html=1;exitX=1;exitY=0.5;exitDx=0;exitDy=0;dashed=1;" edge="1" parent="aimN8S8SISJ-t_hwo4r4-53" source="aimN8S8SISJ-t_hwo4r4-31" target="aimN8S8SISJ-t_hwo4r4-38">
          <mxGeometry relative="1" as="geometry" />
        </mxCell>
        <mxCell id="aimN8S8SISJ-t_hwo4r4-43" value="&lt;font style=&quot;font-size: 14px;&quot;&gt;&amp;nbsp; &amp;nbsp; &amp;nbsp;图例：&lt;/font&gt;" style="rounded=1;whiteSpace=wrap;html=1;align=left;" vertex="1" parent="aimN8S8SISJ-t_hwo4r4-53">
          <mxGeometry y="250" width="612" height="40" as="geometry" />
        </mxCell>
        <mxCell id="aimN8S8SISJ-t_hwo4r4-44" value="" style="rounded=1;whiteSpace=wrap;html=1;fillColor=#eeeeee;strokeColor=#36393d;" vertex="1" parent="aimN8S8SISJ-t_hwo4r4-53">
          <mxGeometry x="97" y="257.5" width="40" height="25" as="geometry" />
        </mxCell>
        <mxCell id="aimN8S8SISJ-t_hwo4r4-45" value="组件" style="text;html=1;strokeColor=none;fillColor=none;align=center;verticalAlign=middle;whiteSpace=wrap;rounded=0;" vertex="1" parent="aimN8S8SISJ-t_hwo4r4-53">
          <mxGeometry x="127" y="255" width="60" height="30" as="geometry" />
        </mxCell>
        <mxCell id="aimN8S8SISJ-t_hwo4r4-46" value="" style="rounded=1;whiteSpace=wrap;html=1;" vertex="1" parent="aimN8S8SISJ-t_hwo4r4-53">
          <mxGeometry x="207" y="257.5" width="40" height="25" as="geometry" />
        </mxCell>
        <mxCell id="aimN8S8SISJ-t_hwo4r4-47" value="数据" style="text;html=1;strokeColor=none;fillColor=none;align=center;verticalAlign=middle;whiteSpace=wrap;rounded=0;" vertex="1" parent="aimN8S8SISJ-t_hwo4r4-53">
          <mxGeometry x="237" y="255" width="60" height="30" as="geometry" />
        </mxCell>
        <mxCell id="aimN8S8SISJ-t_hwo4r4-49" value="" style="endArrow=none;dashed=1;html=1;rounded=0;" edge="1" parent="aimN8S8SISJ-t_hwo4r4-53">
          <mxGeometry width="50" height="50" relative="1" as="geometry">
            <mxPoint x="317" y="269.5" as="sourcePoint" />
            <mxPoint x="362" y="270" as="targetPoint" />
          </mxGeometry>
        </mxCell>
        <mxCell id="aimN8S8SISJ-t_hwo4r4-50" value="可能存在" style="text;html=1;strokeColor=none;fillColor=none;align=center;verticalAlign=middle;whiteSpace=wrap;rounded=0;" vertex="1" parent="aimN8S8SISJ-t_hwo4r4-53">
          <mxGeometry x="362" y="255" width="60" height="30" as="geometry" />
        </mxCell>
        <mxCell id="aimN8S8SISJ-t_hwo4r4-51" value="" style="endArrow=none;html=1;rounded=0;" edge="1" parent="aimN8S8SISJ-t_hwo4r4-53">
          <mxGeometry width="50" height="50" relative="1" as="geometry">
            <mxPoint x="442" y="269.5" as="sourcePoint" />
            <mxPoint x="502" y="269.5" as="targetPoint" />
          </mxGeometry>
        </mxCell>
        <mxCell id="aimN8S8SISJ-t_hwo4r4-52" value="已知存在" style="text;html=1;strokeColor=none;fillColor=none;align=center;verticalAlign=middle;whiteSpace=wrap;rounded=0;" vertex="1" parent="aimN8S8SISJ-t_hwo4r4-53">
          <mxGeometry x="502" y="255" width="60" height="30" as="geometry" />
        </mxCell>
      </root>
    </mxGraphModel>
  </diagram>
</mxfile>
